<?xml version="1.0" encoding="UTF-8"?>
<!DOCTYPE svg PUBLIC "-//W3C//DTD SVG 1.1//EN" "http://www.w3.org/Graphics/SVG/1.1/DTD/svg11.dtd">
<!-- Creator: CorelDRAW X7 -->
<svg xmlns="http://www.w3.org/2000/svg" xml:space="preserve" width="512px" height="512px" version="1.1" style="shape-rendering:geometricPrecision; text-rendering:geometricPrecision; image-rendering:optimizeQuality; fill-rule:evenodd; clip-rule:evenodd"
viewBox="0 0 512 512"
 xmlns:xlink="http://www.w3.org/1999/xlink">
 <defs>
  <style type="text/css">
   <![CDATA[
    .fil0 {fill:#2DBE2C}
    .fil1 {fill:white;fill-rule:nonzero}
   ]]>
  </style>
 </defs>
 <g id="Camada_x0020_1">
  <metadata id="CorelCorpID_0Corel-Layer"/>
  <circle class="fil0" cx="256" cy="256" r="256"/>
  <path class="fil1" d="M162 321l56 -7c2,15 6,25 14,33 8,7 17,11 28,11 12,0 21,-4 30,-13 8,-9 12,-21 12,-37 0,-14 -4,-25 -12,-34 -8,-8 -17,-12 -28,-12 -7,0 -16,1 -26,4l6 -47c15,1 27,-3 35,-10 8,-7 12,-16 12,-28 0,-10 -3,-18 -9,-24 -5,-6 -13,-9 -23,-9 -10,0 -18,3 -25,10 -7,7 -11,17 -13,30l-52 -9c3,-18 9,-33 16,-44 7,-11 18,-19 31,-25 13,-7 28,-10 44,-10 29,0 51,9 68,27 14,15 21,32 21,50 0,26 -14,47 -43,63 17,4 31,12 41,25 10,12 15,28 15,46 0,26 -9,48 -28,67 -19,18 -43,28 -72,28 -27,0 -49,-8 -67,-24 -18,-15 -28,-36 -31,-61z"/>
 </g>
</svg>
